<?xml version="1.0" standalone="no"?>
<!DOCTYPE svg PUBLIC "-//W3C//DTD SVG 20010904//EN"
 "http://www.w3.org/TR/2001/REC-SVG-20010904/DTD/svg10.dtd">
<svg version="1.0" xmlns="http://www.w3.org/2000/svg"
 width="385.000000pt" height="385.000000pt" viewBox="0 0 385.000000 385.000000"
 preserveAspectRatio="xMidYMid meet">
<metadata>
Created by potrace 1.11, written by Peter Selinger 2001-2013
</metadata>
<g transform="translate(0.000000,385.000000) scale(0.100000,-0.100000)"
fill="#000000" stroke="none">
<path d="M2487 3844 c-1 -1 -36 -4 -77 -7 -359 -29 -648 -216 -745 -484 -34
-94 -49 -230 -34 -315 3 -21 3 -38 -1 -38 -4 0 -38 13 -76 28 -147 61 -321 92
-484 86 -89 -3 -178 -12 -189 -18 -3 -2 -23 -7 -44 -10 -62 -10 -174 -53 -263
-101 -99 -54 -223 -170 -277 -260 -111 -183 -125 -451 -36 -686 42 -110 135
-285 169 -319 3 -3 18 -23 34 -45 84 -115 257 -260 426 -357 212 -121 379
-188 925 -370 512 -170 701 -252 933 -406 94 -62 228 -188 290 -274 43 -59
125 -208 135 -243 3 -11 2 16 -1 60 -12 162 -7 388 14 545 5 39 60 317 68 345
2 6 6 24 11 40 23 92 68 246 105 360 22 72 43 137 45 145 2 8 19 65 38 125 62
194 129 448 141 530 4 22 8 47 11 55 8 29 24 158 30 240 33 451 -72 793 -316
1040 -201 202 -398 295 -693 326 -57 6 -136 10 -139 8z"/>
</g>
</svg>
