<?xml version="1.0" encoding="UTF-8"?>
<svg width="539.88" height="257.62" enable-background="new 0 0 693.911 693.908" overflow="visible" version="1.1" viewBox="0 0 539.87713 257.62225" xml:space="preserve" xmlns="http://www.w3.org/2000/svg"><g fill="#fff"><path d="m83.574 110.13c-4.352 13.054-6.871 22.444-12.597 35.041-2.519 4.809-5.267 9.16-10.077 11.68-4.352 2.748-10.306 2.061-14.658-0.458-3.436-2.062-6.184-4.58-8.703-7.787-5.497-6.184-9.391-14.428-10.306-22.673 0-0.688-0.688-0.688-0.916-0.458-0.229 0-0.229 0-0.458 0.229v0.229c-1.604 3.435-2.291 6.87-3.436 10.535-1.604 3.894-2.52 7.328-4.123 10.992-4.123 7.788-13.283 3.436-15.803-2.977-2.977-6.184-2.748-15.116-2.061-21.757 0.687-5.269 3.206-11.909 8.016-14.887 3.435-2.062 7.558-3.665 11.909-2.52 0.916 0.687 1.832 0.687 3.435 1.374 0.687 0 1.374-0.229 1.374-0.916 1.603-14.886 0.229-29.773 0.917-45.117 0-9.849 0.229-19.01 0.916-28.399 0.229-7.329 0.916-14.429 4.352-21.071 1.833-3.435 3.207-6.641 6.642-9.16 2.29-1.832 7.557-3.664 8.245 0.459 0.229 2.747 0.229 5.267-0.458 8.016 0 2.061-0.687 4.122-0.916 6.184-2.519 13.741-6.871 31.376-8.016 45.347-0.687 6.412-1.145 16.489-1.832 22.674 0 0.687-0.916 15.114-0.916 22.215 0 9.161 1.374 19.009 4.122 27.94 2.062 6.642 5.497 12.825 10.306 17.406 2.978 2.748 7.558 3.664 10.993 1.832 4.352-2.062 6.871-6.413 8.932-10.764 3.435-6.413 5.268-13.055 7.787-19.697l4.81-14.657c0.688-0.229 1.145-0.229 1.374 0s0.688 0.457 1.146 1.145zm-63.898-1.832c-2.062-0.916-3.893-0.458-5.497 1.603-2.748 3.665-2.748 7.558-3.435 11.909-0.687 7.1-2.061 14.429-0.458 21.758 0.687 2.062 3.206 5.726 5.268 2.29 1.603-3.436 2.977-6.871 4.122-10.307 1.604-5.726 2.519-11.68 4.123-17.177 0.458-1.146 0.687-2.061 0.687-3.206 0.687-2.978-2.061-5.726-4.81-6.87zm15.116-56.57c0.229-0.687 0.687-1.373 0.687-2.061l6.871-37.103c0.687-3.435-1.146-2.748-2.749-0.688l-2.061 4.811c-0.916 3.436-1.375 6.87-1.375 9.849-0.687 6.641-1.374 13.282-1.603 20.382-0.228 1.604 0.23 4.124 0.23 4.81z"/><path d="m123.88 143.34c-5.497 2.061-11.68 2.061-17.406 1.145-7.558-1.603-14.886-4.81-20.154-10.306-5.496-5.497-8.245-16.72-5.726-24.048 2.52-10.993 14.887-21.758 21.986-12.826 2.52 2.52 4.581 8.245 1.833 11.681-3.207 5.496-8.474 3.665-13.283 6.184l-0.688 0.688-0.229 1.146c0.458 3.435 0 14.657 14.657 21.985 3.894 2.062 8.016 2.749 12.825 2.29 5.268-0.458 10.077-2.519 13.971-6.412 4.351-3.664 5.497-5.726 9.848-10.993 4.352-5.497 7.329-9.391 10.077-14.199 0.688 0 1.145 0 1.374 0.229 1.604 0.688-0.687 4.123-1.374 4.81-3.894 5.496-8.474 11.68-12.826 16.948-5.266 5.723-8.244 9.157-14.885 11.678zm-33.895-32.98c0 0.687 0.687 0.458 1.374 0.458 3.435-0.688 5.955-0.688 8.474-2.291l2.519-2.29c0.688-2.52-0.916-4.352-2.977-6.87-0.916-0.688-1.832-0.688-2.978 0-0.916 0.687-1.374 0.687-2.29 1.603-2.519 2.977-3.436 5.496-4.122 9.39z"/><path d="m218.92 111.28c-2.977 4.81-12.826 19.925-24.506 31.146-6.413 5.955-14.428 12.826-21.756 12.139-8.017 0-11.222-3.436-14.887-7.101-2.978-3.435-5.268-7.786-6.642-13.054-1.832-7.1-1.832-13.513-0.688-20.611 1.604-7.101 4.352-13.514 9.161-18.094 2.061-2.061 6.184-4.809 11.451-5.038 3.436-0.229 5.955 0.915 8.017 3.435 2.519 2.748 3.206 5.955 2.29 9.391-0.229 0.916-0.917 1.374-1.604 1.374-0.458 0-0.916-0.229-1.145-0.916-0.229-0.229-0.458-0.917-0.458-1.832l-0.687-2.978c-0.688-2.062-1.603-3.206-2.749-3.894-0.916-0.688-2.061-0.688-2.748-0.688-1.832 0-3.436 0.458-5.038 1.604-1.604 1.374-3.207 3.664-4.581 7.1-1.832 4.352-2.519 9.849-3.207 16.032-0.229 8.932 0.229 15.345 2.748 20.841 1.146 2.29 4.581 8.933 10.765 9.618 0.229 0 0.687 0.229 1.374 0.229 8.245 0 15.574-7.328 21.299-13.512 8.016-7.559 14.428-16.719 20.612-26.796 0.687-1.603 1.146-1.374 1.832-1.374 0.688 0 1.146 0.457 1.375 1.145 2e-3 0.689 0.46 1.147-0.228 1.834z"/><path d="m292.67 48.295c-1.832 6.643-3.895 45.805-4.582 52.446-0.914 7.33-7.328 76.724 8.018 73.059 0.686-0.229 1.373-0.687 2.289-0.458 1.145 0.229 1.832 1.375 1.832 2.978-0.688 1.146-1.602 2.062-2.748 2.748-5.268 2.521-11.68-0.229-15.344-4.809s-5.039-10.078-5.727-16.261c-3.664-25.881-0.916-51.302 2.52-77.182-8.475 18.322-18.551 51.53-33.208 74.204-1.604 2.52-2.978 4.58-5.497 6.183-5.496 3.436-13.055 1.146-17.405-4.121-3.894-4.81-5.269-11.681-5.955-17.864-2.52-23.131 0.916-46.263 9.16-68.021 6.184-16.718 19.238-46.721 41.225-46.721 7.1 0.688 13.742 5.038 15.803 11.681 2.52-3.435 3.436-6.871 5.268-10.306 1.604-3.436 4.123-6.643 8.473-6.871 1.604-0.229 2.52 0 3.207 0.916 0.916 1.146 0.916 2.52 0.229 4.122-0.688 1.833-0.688 3.206-1.373 5.038-2.064 6.414-4.353 12.597-6.185 19.239zm-9.62 2.519c0-5.268-0.688-10.307-2.748-14.657-2.748-4.58-7.102-8.245-12.367-8.245-8.934-0.688-14.887 7.558-19.239 14.887-4.81 7.786-8.702 16.26-11.68 25.65-6.184 17.635-8.703 36.187-10.307 54.508-0.688 8.475-1.145 16.719 0 24.964 0.229 2.977 0.917 6.184 2.748 8.702 2.062 2.52 5.496 3.895 8.246 2.749 1.603-0.917 2.748-2.062 3.893-3.665 12.825-18.321 19.696-40.308 28.399-61.149 2.748-6.642 5.496-12.825 8.016-19.925 2.748-7.558 4.811-15.575 5.039-23.819zm10.307-16.718c2.061-3.436 2.748-6.871 3.664-10.535 0 0-0.23-0.229-0.459-0.916-0.229-0.229-0.457-0.229-0.457 0.229-0.916 0.688-1.375 1.146-1.604 1.833-1.144 3.434-1.831 5.953-1.144 9.389z"/><path d="m478.86 218c-3.207 5.038-8.018 9.161-14.199 11.909-5.727 2.52-12.369 3.894-19.01 3.894-5.727 0-11.451-0.916-16.49-2.748-11.451-3.894-21.07-11.451-30.461-18.552-2.061-1.603-4.121-3.206-6.184-4.809-1.602-0.917-2.977-1.833-5.268-1.146-1.83 0.458-3.893 1.603-5.725 2.29-21.299 9.849-46.262 21.07-71.914 30.002-13.971 4.81-29.771 10.078-45.805 13.741-9.619 2.291-21.299 5.039-32.75 5.039-4.58 0-8.932-0.458-12.825-1.374-6.871-1.832-12.368-5.497-15.345-10.535-2.977-4.352-3.665-10.077-2.061-15.573 1.603-5.497 5.267-10.078 10.076-12.368 1.604-0.916 3.436-1.373 5.039-1.373 1.146 0 3.894 0.457 3.206 2.061 0 0.688-0.686 1.146-1.603 1.146-2.519 0-5.038 0.229-7.329 1.832-2.29 1.603-3.893 3.894-5.268 7.328-1.832 4.811-1.832 9.39-0.229 13.284 3.207 7.328 12.138 10.076 17.177 10.764 3.665 0.688 7.558 1.146 11.452 1.146 6.412 0 13.513-0.917 22.215-2.52 19.238-3.894 38.246-10.535 54.508-16.261 20.383-7.328 40.309-16.031 59.775-24.505 3.664-1.604 7.1-3.207 10.764-4.811 4.352-1.832 5.725-2.748 6.412-4.351 0.916-2.748-2.061-5.955-2.977-8.245-6.643-15.115-11.682-30.919-16.719-46.492-3.664-12.138-8.475-26.338-19.469-33.896-4.121-2.748-9.158-4.123-13.969-4.123-1.145 0-2.291 0.229-2.979 0.917-0.914 0.688-1.145 2.29-1.145 3.436 0.23 18.093 0 36.414-0.916 54.507-0.457 4.581-0.688 9.391-2.52 13.742-0.229 0.457-0.457 1.145-0.916 1.374-1.832 1.146-3.436-1.145-3.893-3.207-7.787-26.566-9.391-54.965-4.58-82.22 2.289-12.366 5.725-24.733 5.266-37.33-0.229-5.038-1.145-10.076 0-14.887 0.459-1.145 0.918-2.29 1.834-2.52 2.061-1.146 3.893 2.062 4.352 4.352 0.457 2.749 0.916 5.496 1.604 8.017 3.434-5.955 8.473-11.451 14.656-14.43 6.412-3.205 13.971-4.122 20.611-1.603 9.162 3.436 15.346 12.825 16.262 22.674 0.916 9.848-2.977 19.696-9.391 27.024-6.184 7.558-14.887 12.825-23.818 16.719 2.291-0.916 7.787 5.497 9.162 7.1 11.68 12.367 16.26 30.231 21.756 45.805 4.123 11.681 7.1 24.047 12.826 35.041 1.604 3.435 3.893 4.81 7.1 4.81 0.688 0 1.604 0 2.748-0.229 5.727-1.146 9.619-3.894 14.428-6.642 12.139-6.87 27.256-14.199 41.455-14.199 6.184 0 13.512 1.604 18.779 6.412 4.352 4.122 6.871 10.306 7.1 16.948 0.232 5.954-1.369 12.367-4.805 17.635zm-155.74-93.671c0-9.849-0.23-19.695-0.459-29.544 0-0.688 0-6.184-0.916-6.184 0-0.459-0.457-0.229-0.688 0.229-0.916 3.207-1.832 6.184-2.061 9.391-0.459 10.077-2.061 19.695-2.061 29.314 0 13.971 1.602 27.713 5.037 41.225 0.229 0.688 0.459 1.146 0.688 1.146 0.459-1.604 0.459-3.436 0.459-5.269v-40.308zm44.429-37.56c7.787-10.536 9.619-25.65 2.979-36.644-1.834-2.979-4.354-5.726-7.789-7.559-4.35-2.062-10.076-2.062-14.887-0.229-17.861 6.642-19.236 24.964-18.549 41.683 0.688 5.954 0.688 12.138 1.373 17.863 0 1.374 0 2.749 1.146 3.436 0.457 0.458 2.518 0.458 2.748 0.458 13.056-2.289 25.421-8.473 32.979-19.008zm113.14 110.85c-0.688-5.497-3.436-10.078-7.787-13.283-4.123-2.748-9.391-4.123-15.574-4.123-4.58 0-9.848 0.916-15.346 2.52-10.992 3.206-21.068 8.932-30.916 14.657-1.832 1.146-3.895 2.29-5.955 3.436-1.832 1.146-2.748 2.061-2.979 3.436-0.229 1.145 0.23 2.519 1.604 4.351 3.895 5.269 9.16 9.391 13.514 12.597 8.244 5.955 17.404 8.933 27.482 8.933 3.664 0 7.787-0.229 11.68-1.146 7.1-1.604 13.055-4.81 17.406-9.619 5.039-5.956 7.787-14.43 6.871-21.759z"/><path d="m469.7 111.51c0 0.916-3.895 10.535-5.039 12.138-7.33 14.429-12.596 25.193-21.529 35.957-5.496 6.643-11.908 12.368-17.176 16.032-7.1 5.268-14.428 4.58-21.07-0.916-10.535-9.391-13.283-25.193-15.803-38.019s-2.52-25.65-0.916-38.476c0.916-9.849 2.291-20.842 2.979-33.667 0-1.374-0.918-2.29-2.52-2.977-4.123-1.146-27.484-2.291-33.438-2.291-2.75-0.229-38.248-1.832-38.248-1.603h-8.703c-4.809 0-10.764 0.228-14.656 0-1.604-0.229-3.666-1.603-1.604-3.206 0.686-0.459 1.373-0.688 2.061-0.688 4.352-0.688 8.475-0.458 12.826-0.458 16.719 0 82.676 3.206 83.363 3.206 1.146 0 2.063-0.687 2.748-1.832l2.063-5.726c0.688-2.52 1.145-5.268 2.061-8.017 1.604-4.809 4.58-9.848 9.85-10.764 4.35-1.146 7.785 0.916 9.389 5.268 1.832 4.809 2.977 10.077 1.375 14.888 0 1.603-0.459 2.747-0.459 4.351 0 0.917 0.459 1.604 1.375 1.832 0.686 0.688 1.832 0.688 2.52 0.688 4.809 0 29.773 2.748 33.436 3.436 1.605 0.687 2.979 1.374 2.979 3.205 0.229 0.916 0.229 2.979-1.373 2.291-8.703-2.52-34.127-3.894-35.957-3.894-2.063 0.229-3.895 0.688-4.811 2.519-1.145 1.833-9.391 15.346-12.367 20.843-2.748 4.809-3.207 10.076-3.895 15.573-0.916 11.68-0.457 25.421 1.146 37.102 1.145 9.16 6.643 38.018 21.986 34.354 9.16-1.832 17.404-14.887 21.758-20.383 3.664-5.269 12.367-18.78 23.131-42.599 1.83-1.602 3.205 0.229 2.518 1.833zm-67.106-32.75c0 0.229 0.23 0.458 0.459 0.458 0-0.688 4.121-8.933 5.727-12.367v-1.604c0-1.604-1.146-2.52-2.75-1.832-0.686 0.229-1.145 0.687-1.832 1.603-0.457 1.145-1.604 13.054-1.604 13.742zm3.666-23.59c0.457 1.146 1.602 1.604 3.205 1.374 1.145-0.457 2.063-1.374 2.52-2.52 1.604-2.519 1.604-5.267 1.604-8.244 0-2.52 0-4.581-0.916-7.1-0.688-0.916-1.375-1.146-2.291-0.916-0.686 0.688-1.373 1.603-2.061 2.977-0.688 2.52-0.916 4.81-1.604 6.871-0.229 1.604-0.688 5.038-0.688 5.726-0.228 0.228 1e-3 0.916 0.231 1.832z"/><path d="m510.23 143.34c-5.498 2.061-11.682 2.061-17.406 1.145-7.559-1.603-14.887-4.81-20.154-10.306-5.496-5.497-8.244-16.72-5.725-24.048 2.518-10.993 14.885-21.758 21.986-12.826 2.52 2.52 4.58 8.245 1.832 11.681-3.207 5.496-8.475 3.665-13.285 6.184l-0.686 0.688-0.229 1.146c0.457 3.435 0 14.657 14.656 21.985 3.893 2.062 8.016 2.749 12.826 2.29 5.268-0.458 10.076-2.519 13.971-6.412 4.35-3.664 5.496-5.726 9.848-10.993 4.352-5.497 7.328-9.391 10.076-14.199 0.688 0 1.145 0 1.375 0.229 1.604 0.688-0.688 4.123-1.375 4.81-3.893 5.496-8.473 11.68-12.824 16.948-5.267 5.723-8.245 9.157-14.886 11.678zm-33.896-32.98c0 0.687 0.688 0.458 1.375 0.458 3.436-0.688 5.953-0.688 8.475-2.291l2.518-2.29c0.688-2.52-0.916-4.352-2.977-6.87-0.916-0.688-1.832-0.688-2.977 0-0.918 0.687-1.375 0.687-2.291 1.603-2.52 2.977-3.436 5.496-4.123 9.39z"/></g></svg>
