<?xml version="1.0" encoding="utf-8"?>
<!-- Generator: Adobe Illustrator 12.0.0, SVG Export Plug-In . SVG Version: 6.00 Build 51448)  -->
<!DOCTYPE svg PUBLIC "-//W3C//DTD SVG 1.1//EN" "http://www.w3.org/Graphics/SVG/1.1/DTD/svg11.dtd" [
	<!ENTITY ns_svg "http://www.w3.org/2000/svg">
	<!ENTITY ns_xlink "http://www.w3.org/1999/xlink">
]>
<svg  version="1.1" id="Layer_1" xmlns="&ns_svg;" xmlns:xlink="&ns_xlink;" width="693.911" height="693.908"
	 viewBox="0 0 693.911 693.908" overflow="visible" enable-background="new 0 0 693.911 693.908" xml:space="preserve">
<g>
	<circle fill="none" stroke="#F12F61" stroke-width="2" stroke-miterlimit="10" cx="346.955" cy="346.955" r="345.955"/>
</g>
<path fill="#231F20" d="M431.364,137.047c-15.328-24.715-30.65-49.426-45.643-74.339c0.42,0.193,0.844,0.396,1.197,0.482
	l-44.176,27.541c-54.865,32.521-109.729,65.045-164.375,97.93c-0.006-0.389-0.012-0.773,0.102-1.237l44.359,75.117l-45.477-74.444
	l-0.267-0.439l0.497-0.302l163.249-99.8l44.953-26.245l1.086-0.633l0.574,0.991L431.364,137.047z"/>
<path fill="#231F20" d="M206.105,169.828l11.33-121.887l0.189-2.043l2.232,0.601l21.48,5.982l99.045,30.522l8.435,2.599
	l-2.584,1.522L206.105,169.828c46.25-28.333,92.496-56.666,138.967-84.631c0.022,0.658,0.047,1.315-5.419,0.231L240.1,56.605
	c-10.784-3.266-16.036-4.929-21.317-6.509c0.839-0.58,1.677-1.158,2.541-1.732L206.105,169.828z"/>
<path fill="#231F20" d="M287.096,416.712l46.722-198.449l0.324-1.359l1.571,0.347l29.979,6.598l172.063,41.056l2.879,0.686
	l-2.506,1.492L287.096,416.712c83.27-50.557,166.534-101.115,249.995-151.344c0.049,0.602,0.092,1.193,0.16,1.666l-172.404-39.576
	c-9.943-2.415-19.886-4.828-29.845-7.163c0.648-0.428,1.299-0.847,1.974-1.261L287.096,416.712z"/>
<path fill="#231F20" d="M287.096,416.712l-54.918-87.664l-38.039-64.514l-1.023-1.734l1.941-0.134l131.696-8.613
	c-43.837,3.683-87.677,7.37-131.54,10.657c0.316-0.467,0.634-0.934,0.843-1.329l39.298,63.755L287.096,416.712z"/>
<path fill="#231F20" d="M537.489,266.028l-55.439-88.536c-12.51-21.208-25.021-42.423-37.717-63.517
	c0.744-0.033,1.486-0.064,2.293-0.057l-72.748,113.75l70.65-115.063l0.938-1.525l0.994,1.613l38.768,62.889L537.489,266.028z"/>
<polygon fill="#231F20" points="195.442,262.212 194.761,249.194 197.121,223.327 197.243,249.306 "/>
<polygon fill="#231F20" points="412.688,102.529 424.444,105.212 446.739,114.162 423.633,107.599 "/>
<g>
	<path d="M182.86,479.658c-4.352,13.054-6.871,22.444-12.597,35.041c-2.519,4.809-5.267,9.16-10.077,11.68
		c-4.352,2.748-10.306,2.061-14.658-0.458c-3.436-2.062-6.184-4.58-8.703-7.787c-5.497-6.184-9.391-14.428-10.306-22.673
		c0-0.688-0.688-0.688-0.916-0.458c-0.229,0-0.229,0-0.458,0.229v0.229c-1.604,3.435-2.291,6.87-3.436,10.535
		c-1.604,3.894-2.52,7.328-4.123,10.992c-4.123,7.788-13.283,3.436-15.803-2.977c-2.977-6.184-2.748-15.116-2.061-21.757
		c0.687-5.269,3.206-11.909,8.016-14.887c3.435-2.062,7.558-3.665,11.909-2.52c0.916,0.687,1.832,0.687,3.435,1.374
		c0.687,0,1.374-0.229,1.374-0.916c1.603-14.886,0.229-29.773,0.917-45.117c0-9.849,0.229-19.01,0.916-28.399
		c0.229-7.329,0.916-14.429,4.352-21.071c1.833-3.435,3.207-6.641,6.642-9.16c2.29-1.832,7.557-3.664,8.245,0.459
		c0.229,2.747,0.229,5.267-0.458,8.016c0,2.061-0.687,4.122-0.916,6.184c-2.519,13.741-6.871,31.376-8.016,45.347
		c-0.687,6.412-1.145,16.489-1.832,22.674c0,0.687-0.916,15.114-0.916,22.215c0,9.161,1.374,19.009,4.122,27.94
		c2.062,6.642,5.497,12.825,10.306,17.406c2.978,2.748,7.558,3.664,10.993,1.832c4.352-2.062,6.871-6.413,8.932-10.764
		c3.435-6.413,5.268-13.055,7.787-19.697l4.81-14.657c0.688-0.229,1.145-0.229,1.374,0S182.402,478.97,182.86,479.658z
		 M118.962,477.826c-2.062-0.916-3.893-0.458-5.497,1.603c-2.748,3.665-2.748,7.558-3.435,11.909
		c-0.687,7.1-2.061,14.429-0.458,21.758c0.687,2.062,3.206,5.726,5.268,2.29c1.603-3.436,2.977-6.871,4.122-10.307
		c1.604-5.726,2.519-11.68,4.123-17.177c0.458-1.146,0.687-2.061,0.687-3.206C124.459,481.718,121.711,478.97,118.962,477.826z
		 M134.078,421.256c0.229-0.687,0.687-1.373,0.687-2.061l6.871-37.103c0.687-3.435-1.146-2.748-2.749-0.688l-2.061,4.811
		c-0.916,3.436-1.375,6.87-1.375,9.849c-0.687,6.641-1.374,13.282-1.603,20.382C133.62,418.05,134.078,420.57,134.078,421.256z"/>
	<path d="M223.166,512.867c-5.497,2.061-11.68,2.061-17.406,1.145c-7.558-1.603-14.886-4.81-20.154-10.306
		c-5.496-5.497-8.245-16.72-5.726-24.048c2.52-10.993,14.887-21.758,21.986-12.826c2.52,2.52,4.581,8.245,1.833,11.681
		c-3.207,5.496-8.474,3.665-13.283,6.184l-0.688,0.688l-0.229,1.146c0.458,3.435,0,14.657,14.657,21.985
		c3.894,2.062,8.016,2.749,12.825,2.29c5.268-0.458,10.077-2.519,13.971-6.412c4.351-3.664,5.497-5.726,9.848-10.993
		c4.352-5.497,7.329-9.391,10.077-14.199c0.688,0,1.145,0,1.374,0.229c1.604,0.688-0.687,4.123-1.374,4.81
		c-3.894,5.496-8.474,11.68-12.826,16.948C232.785,506.912,229.807,510.346,223.166,512.867z M189.271,479.887
		c0,0.687,0.687,0.458,1.374,0.458c3.435-0.688,5.955-0.688,8.474-2.291l2.519-2.29c0.688-2.52-0.916-4.352-2.977-6.87
		c-0.916-0.688-1.832-0.688-2.978,0c-0.916,0.687-1.374,0.687-2.29,1.603C190.874,473.474,189.957,475.993,189.271,479.887z"/>
	<path d="M318.209,480.803c-2.977,4.81-12.826,19.925-24.506,31.146c-6.413,5.955-14.428,12.826-21.756,12.139
		c-8.017,0-11.222-3.436-14.887-7.101c-2.978-3.435-5.268-7.786-6.642-13.054c-1.832-7.1-1.832-13.513-0.688-20.611
		c1.604-7.101,4.352-13.514,9.161-18.094c2.061-2.061,6.184-4.809,11.451-5.038c3.436-0.229,5.955,0.915,8.017,3.435
		c2.519,2.748,3.206,5.955,2.29,9.391c-0.229,0.916-0.917,1.374-1.604,1.374c-0.458,0-0.916-0.229-1.145-0.916
		c-0.229-0.229-0.458-0.917-0.458-1.832l-0.687-2.978c-0.688-2.062-1.603-3.206-2.749-3.894c-0.916-0.688-2.061-0.688-2.748-0.688
		c-1.832,0-3.436,0.458-5.038,1.604c-1.604,1.374-3.207,3.664-4.581,7.1c-1.832,4.352-2.519,9.849-3.207,16.032
		c-0.229,8.932,0.229,15.345,2.748,20.841c1.146,2.29,4.581,8.933,10.765,9.618c0.229,0,0.687,0.229,1.374,0.229
		c8.245,0,15.574-7.328,21.299-13.512c8.016-7.559,14.428-16.719,20.612-26.796c0.687-1.603,1.146-1.374,1.832-1.374
		c0.688,0,1.146,0.457,1.375,1.145C318.439,479.658,318.897,480.116,318.209,480.803z"/>
	<path fill="#F12F61" d="M391.954,417.821c-1.832,6.643-3.895,45.805-4.582,52.446c-0.914,7.33-7.328,76.724,8.018,73.059
		c0.686-0.229,1.373-0.687,2.289-0.458c1.145,0.229,1.832,1.375,1.832,2.978c-0.688,1.146-1.602,2.062-2.748,2.748
		c-5.268,2.521-11.68-0.229-15.344-4.809c-3.664-4.58-5.039-10.078-5.727-16.261c-3.664-25.881-0.916-51.302,2.52-77.182
		c-8.475,18.322-18.551,51.53-33.208,74.204c-1.604,2.52-2.978,4.58-5.497,6.183c-5.496,3.436-13.055,1.146-17.405-4.121
		c-3.894-4.81-5.269-11.681-5.955-17.864c-2.52-23.131,0.916-46.263,9.16-68.021c6.184-16.718,19.238-46.721,41.225-46.721
		c7.1,0.688,13.742,5.038,15.803,11.681c2.52-3.435,3.436-6.871,5.268-10.306c1.604-3.436,4.123-6.643,8.473-6.871
		c1.604-0.229,2.52,0,3.207,0.916c0.916,1.146,0.916,2.52,0.229,4.122c-0.688,1.833-0.688,3.206-1.373,5.038
		C396.075,404.996,393.786,411.179,391.954,417.821z M382.334,420.34c0-5.268-0.688-10.307-2.748-14.657
		c-2.748-4.58-7.102-8.245-12.367-8.245c-8.934-0.688-14.887,7.558-19.239,14.887c-4.81,7.786-8.702,16.26-11.68,25.65
		c-6.184,17.635-8.703,36.187-10.307,54.508c-0.688,8.475-1.145,16.719,0,24.964c0.229,2.977,0.917,6.184,2.748,8.702
		c2.062,2.52,5.496,3.895,8.246,2.749c1.603-0.917,2.748-2.062,3.893-3.665c12.825-18.321,19.696-40.308,28.399-61.149
		c2.748-6.642,5.496-12.825,8.016-19.925C380.043,436.601,382.106,428.584,382.334,420.34z M392.641,403.622
		c2.061-3.436,2.748-6.871,3.664-10.535c0,0-0.23-0.229-0.459-0.916c-0.229-0.229-0.457-0.229-0.457,0.229
		c-0.916,0.688-1.375,1.146-1.604,1.833C392.641,397.667,391.954,400.186,392.641,403.622z"/>
	<path fill="#F12F61" d="M578.147,587.528c-3.207,5.038-8.018,9.161-14.199,11.909c-5.727,2.52-12.369,3.894-19.01,3.894
		c-5.727,0-11.451-0.916-16.49-2.748c-11.451-3.894-21.07-11.451-30.461-18.552c-2.061-1.603-4.121-3.206-6.184-4.809
		c-1.602-0.917-2.977-1.833-5.268-1.146c-1.83,0.458-3.893,1.603-5.725,2.29c-21.299,9.849-46.262,21.07-71.914,30.002
		c-13.971,4.81-29.771,10.078-45.805,13.741c-9.619,2.291-21.299,5.039-32.75,5.039c-4.58,0-8.932-0.458-12.825-1.374
		c-6.871-1.832-12.368-5.497-15.345-10.535c-2.977-4.352-3.665-10.077-2.061-15.573c1.603-5.497,5.267-10.078,10.076-12.368
		c1.604-0.916,3.436-1.373,5.039-1.373c1.146,0,3.894,0.457,3.206,2.061c0,0.688-0.686,1.146-1.603,1.146
		c-2.519,0-5.038,0.229-7.329,1.832c-2.29,1.603-3.893,3.894-5.268,7.328c-1.832,4.811-1.832,9.39-0.229,13.284
		c3.207,7.328,12.138,10.076,17.177,10.764c3.665,0.688,7.558,1.146,11.452,1.146c6.412,0,13.513-0.917,22.215-2.52
		c19.238-3.894,38.246-10.535,54.508-16.261c20.383-7.328,40.309-16.031,59.775-24.505c3.664-1.604,7.1-3.207,10.764-4.811
		c4.352-1.832,5.725-2.748,6.412-4.351c0.916-2.748-2.061-5.955-2.977-8.245c-6.643-15.115-11.682-30.919-16.719-46.492
		c-3.664-12.138-8.475-26.338-19.469-33.896c-4.121-2.748-9.158-4.123-13.969-4.123c-1.145,0-2.291,0.229-2.979,0.917
		c-0.914,0.688-1.145,2.29-1.145,3.436c0.23,18.093,0,36.414-0.916,54.507c-0.457,4.581-0.688,9.391-2.52,13.742
		c-0.229,0.457-0.457,1.145-0.916,1.374c-1.832,1.146-3.436-1.145-3.893-3.207c-7.787-26.566-9.391-54.965-4.58-82.22
		c2.289-12.366,5.725-24.733,5.266-37.33c-0.229-5.038-1.145-10.076,0-14.887c0.459-1.145,0.918-2.29,1.834-2.52
		c2.061-1.146,3.893,2.062,4.352,4.352c0.457,2.749,0.916,5.496,1.604,8.017c3.434-5.955,8.473-11.451,14.656-14.43
		c6.412-3.205,13.971-4.122,20.611-1.603c9.162,3.436,15.346,12.825,16.262,22.674c0.916,9.848-2.977,19.696-9.391,27.024
		c-6.184,7.558-14.887,12.825-23.818,16.719c2.291-0.916,7.787,5.497,9.162,7.1c11.68,12.367,16.26,30.231,21.756,45.805
		c4.123,11.681,7.1,24.047,12.826,35.041c1.604,3.435,3.893,4.81,7.1,4.81c0.688,0,1.604,0,2.748-0.229
		c5.727-1.146,9.619-3.894,14.428-6.642c12.139-6.87,27.256-14.199,41.455-14.199c6.184,0,13.512,1.604,18.779,6.412
		c4.352,4.122,6.871,10.306,7.1,16.948C583.184,575.847,581.583,582.26,578.147,587.528z M422.411,493.857
		c0-9.849-0.23-19.695-0.459-29.544c0-0.688,0-6.184-0.916-6.184c0-0.459-0.457-0.229-0.688,0.229
		c-0.916,3.207-1.832,6.184-2.061,9.391c-0.459,10.077-2.061,19.695-2.061,29.314c0,13.971,1.602,27.713,5.037,41.225
		c0.229,0.688,0.459,1.146,0.688,1.146c0.459-1.604,0.459-3.436,0.459-5.269V493.857z M466.84,456.297
		c7.787-10.536,9.619-25.65,2.979-36.644c-1.834-2.979-4.354-5.726-7.789-7.559c-4.35-2.062-10.076-2.062-14.887-0.229
		c-17.861,6.642-19.236,24.964-18.549,41.683c0.688,5.954,0.688,12.138,1.373,17.863c0,1.374,0,2.749,1.146,3.436
		c0.457,0.458,2.518,0.458,2.748,0.458C446.917,473.016,459.282,466.832,466.84,456.297z M579.979,567.145
		c-0.688-5.497-3.436-10.078-7.787-13.283c-4.123-2.748-9.391-4.123-15.574-4.123c-4.58,0-9.848,0.916-15.346,2.52
		c-10.992,3.206-21.068,8.932-30.916,14.657c-1.832,1.146-3.895,2.29-5.955,3.436c-1.832,1.146-2.748,2.061-2.979,3.436
		c-0.229,1.145,0.23,2.519,1.604,4.351c3.895,5.269,9.16,9.391,13.514,12.597c8.244,5.955,17.404,8.933,27.482,8.933
		c3.664,0,7.787-0.229,11.68-1.146c7.1-1.604,13.055-4.81,17.406-9.619C578.147,582.948,580.895,574.474,579.979,567.145z"/>
	<path fill="#F12F61" d="M568.985,481.032c0,0.916-3.895,10.535-5.039,12.138c-7.33,14.429-12.596,25.193-21.529,35.957
		c-5.496,6.643-11.908,12.368-17.176,16.032c-7.1,5.268-14.428,4.58-21.07-0.916c-10.535-9.391-13.283-25.193-15.803-38.019
		s-2.52-25.65-0.916-38.476c0.916-9.849,2.291-20.842,2.979-33.667c0-1.374-0.918-2.29-2.52-2.977
		c-4.123-1.146-27.484-2.291-33.438-2.291c-2.75-0.229-38.248-1.832-38.248-1.603h-8.703c-4.809,0-10.764,0.228-14.656,0
		c-1.604-0.229-3.666-1.603-1.604-3.206c0.686-0.459,1.373-0.688,2.061-0.688c4.352-0.688,8.475-0.458,12.826-0.458
		c16.719,0,82.676,3.206,83.363,3.206c1.146,0,2.063-0.687,2.748-1.832l2.063-5.726c0.688-2.52,1.145-5.268,2.061-8.017
		c1.604-4.809,4.58-9.848,9.85-10.764c4.35-1.146,7.785,0.916,9.389,5.268c1.832,4.809,2.977,10.077,1.375,14.888
		c0,1.603-0.459,2.747-0.459,4.351c0,0.917,0.459,1.604,1.375,1.832c0.686,0.688,1.832,0.688,2.52,0.688
		c4.809,0,29.773,2.748,33.436,3.436c1.605,0.687,2.979,1.374,2.979,3.205c0.229,0.916,0.229,2.979-1.373,2.291
		c-8.703-2.52-34.127-3.894-35.957-3.894c-2.063,0.229-3.895,0.688-4.811,2.519c-1.145,1.833-9.391,15.346-12.367,20.843
		c-2.748,4.809-3.207,10.076-3.895,15.573c-0.916,11.68-0.457,25.421,1.146,37.102c1.145,9.16,6.643,38.018,21.986,34.354
		c9.16-1.832,17.404-14.887,21.758-20.383c3.664-5.269,12.367-18.78,23.131-42.599C568.297,477.597,569.672,479.428,568.985,481.032
		z M501.879,448.282c0,0.229,0.23,0.458,0.459,0.458c0-0.688,4.121-8.933,5.727-12.367c0-1.146,0-1.604,0-1.604
		c0-1.604-1.146-2.52-2.75-1.832c-0.686,0.229-1.145,0.687-1.832,1.603C503.026,435.685,501.879,447.594,501.879,448.282z
		 M505.545,424.692c0.457,1.146,1.602,1.604,3.205,1.374c1.145-0.457,2.063-1.374,2.52-2.52c1.604-2.519,1.604-5.267,1.604-8.244
		c0-2.52,0-4.581-0.916-7.1c-0.688-0.916-1.375-1.146-2.291-0.916c-0.686,0.688-1.373,1.603-2.061,2.977
		c-0.688,2.52-0.916,4.81-1.604,6.871c-0.229,1.604-0.688,5.038-0.688,5.726C505.086,423.088,505.315,423.776,505.545,424.692z"/>
	<path d="M609.52,512.867c-5.498,2.061-11.682,2.061-17.406,1.145c-7.559-1.603-14.887-4.81-20.154-10.306
		c-5.496-5.497-8.244-16.72-5.725-24.048c2.518-10.993,14.885-21.758,21.986-12.826c2.52,2.52,4.58,8.245,1.832,11.681
		c-3.207,5.496-8.475,3.665-13.285,6.184l-0.686,0.688l-0.229,1.146c0.457,3.435,0,14.657,14.656,21.985
		c3.893,2.062,8.016,2.749,12.826,2.29c5.268-0.458,10.076-2.519,13.971-6.412c4.35-3.664,5.496-5.726,9.848-10.993
		c4.352-5.497,7.328-9.391,10.076-14.199c0.688,0,1.145,0,1.375,0.229c1.604,0.688-0.688,4.123-1.375,4.81
		c-3.893,5.496-8.473,11.68-12.824,16.948C619.139,506.912,616.161,510.346,609.52,512.867z M575.624,479.887
		c0,0.687,0.688,0.458,1.375,0.458c3.436-0.688,5.953-0.688,8.475-2.291l2.518-2.29c0.688-2.52-0.916-4.352-2.977-6.87
		c-0.916-0.688-1.832-0.688-2.977,0c-0.918,0.687-1.375,0.687-2.291,1.603C577.227,473.474,576.311,475.993,575.624,479.887z"/>
	<path d="M107.789,552.514v-2.199h11.985l-9.505,20.479h9.027v2.231h-12.527l9.572-20.512H107.789z"/>
	<path d="M139.442,550.315l10.598,22.711h-2.46l-3.545-7.459h-9.821l-3.523,7.459h-2.532l10.726-22.711H139.442z M139.15,555.113
		l-3.899,8.255h7.783L139.15,555.113z"/>
	<path d="M159.865,550.315h4.528c2.596,0,4.347,0.113,5.253,0.339c1.298,0.32,2.359,0.977,3.183,1.971s1.236,2.243,1.236,3.747
		c0,1.515-0.402,2.764-1.206,3.747c-0.805,0.983-1.912,1.646-3.325,1.985c-1.031,0.247-2.958,0.371-5.783,0.371h-1.624v10.551
		h-2.263V550.315z M162.128,552.545v7.698l3.853,0.047c1.558,0,2.698-0.142,3.42-0.424c0.722-0.281,1.29-0.738,1.702-1.37
		c0.413-0.631,0.619-1.337,0.619-2.117c0-0.76-0.207-1.455-0.619-2.085c-0.413-0.632-0.957-1.081-1.633-1.349
		c-0.676-0.267-1.782-0.4-3.319-0.4H162.128z"/>
	<path d="M185.045,550.315h4.528c2.523,0,4.233,0.104,5.13,0.31c1.35,0.309,2.446,0.972,3.291,1.988
		c0.845,1.016,1.268,2.266,1.268,3.751c0,1.238-0.292,2.326-0.874,3.266c-0.583,0.938-1.416,1.647-2.499,2.126
		c-1.083,0.48-2.578,0.726-4.485,0.735l8.177,10.535h-2.821l-8.176-10.535h-1.275v10.535h-2.263V550.315z M187.309,552.545v7.714
		l3.921,0.031c1.519,0,2.643-0.144,3.372-0.432c0.729-0.288,1.297-0.748,1.705-1.381c0.408-0.632,0.612-1.339,0.612-2.121
		c0-0.761-0.207-1.453-0.62-2.075c-0.414-0.622-0.957-1.067-1.628-1.335s-1.788-0.401-3.348-0.401H187.309z"/>
	<path d="M221.259,549.741c3.438,0,6.316,1.148,8.633,3.443c2.317,2.296,3.474,5.122,3.474,8.478c0,3.326-1.155,6.147-3.466,8.463
		c-2.312,2.316-5.13,3.475-8.456,3.475c-3.367,0-6.208-1.152-8.525-3.459c-2.317-2.306-3.475-5.097-3.475-8.369
		c0-2.183,0.527-4.206,1.583-6.069c1.056-1.864,2.494-3.322,4.317-4.378C217.167,550.269,219.138,549.741,221.259,549.741z
		 M221.359,551.957c-1.68,0-3.273,0.437-4.778,1.313c-1.505,0.876-2.68,2.054-3.525,3.536c-0.845,1.483-1.268,3.135-1.268,4.957
		c0,2.698,0.935,4.976,2.806,6.834c1.872,1.858,4.126,2.788,6.766,2.788c1.763,0,3.394-0.428,4.894-1.282
		c1.5-0.854,2.67-2.023,3.51-3.505c0.84-1.483,1.26-3.13,1.26-4.942c0-1.802-0.419-3.432-1.26-4.889
		c-0.84-1.456-2.023-2.621-3.549-3.497C224.689,552.393,223.071,551.957,221.359,551.957z"/>
	<path d="M241.897,568.797l1.93-1.159c1.358,2.498,2.928,3.746,4.708,3.746c0.762,0,1.478-0.178,2.146-0.533
		c0.669-0.354,1.179-0.831,1.529-1.429c0.35-0.597,0.525-1.229,0.525-1.898c0-0.762-0.257-1.508-0.772-2.239
		c-0.71-1.008-2.007-2.223-3.891-3.644c-1.895-1.431-3.073-2.465-3.536-3.104c-0.803-1.07-1.205-2.228-1.205-3.473
		c0-0.987,0.237-1.888,0.71-2.7c0.474-0.813,1.141-1.453,2-1.922c0.86-0.468,1.794-0.702,2.803-0.702
		c1.071,0,2.072,0.264,3.004,0.793c0.932,0.529,1.917,1.501,2.958,2.918l-1.853,1.405c-0.854-1.13-1.584-1.874-2.188-2.234
		c-0.603-0.358-1.259-0.539-1.97-0.539c-0.917,0-1.667,0.278-2.249,0.834c-0.582,0.556-0.873,1.24-0.873,2.054
		c0,0.494,0.103,0.973,0.309,1.436s0.582,0.968,1.127,1.513c0.299,0.289,1.277,1.045,2.935,2.271
		c1.967,1.452,3.316,2.744,4.047,3.878c0.731,1.133,1.097,2.271,1.097,3.413c0,1.648-0.626,3.08-1.876,4.296
		c-1.25,1.215-2.771,1.822-4.562,1.822c-1.378,0-2.63-0.367-3.751-1.104C243.878,571.759,242.843,570.526,241.897,568.797z"/>
	<path d="M265.436,552.514v-2.199h11.985l-9.504,20.479h9.026v2.231h-12.527l9.573-20.512H265.436z"/>
	<path d="M287.829,550.315h13.037v2.23h-10.774v7.108h10.678v2.231h-10.678v8.909h10.678v2.231h-12.941V550.315z"/>
	<path d="M311.104,573.026v-22.711h0.493l15.125,17.386v-17.386h2.231v22.711h-0.508l-14.999-17.192v17.192H311.104z"/>
	<path d="M340.485,550.315h2.263v22.711h-2.263V550.315z"/>
	<path d="M363.551,550.315l10.6,22.711h-2.461l-3.547-7.459h-9.82l-3.523,7.459h-2.531l10.727-22.711H363.551z M363.26,555.113
		l-3.898,8.255h7.781L363.26,555.113z"/>
</g>
<path fill="#F12F61" d="M332.701,213.786c-4.522-25.719,13.122-47.042,8.2-70.008c-6.836-28.846-51.648-23.256-42.041,2.061
	c-20.955-12.556-46.343,0.911-32.089,24.742C280.68,193.238,324.288,188.045,332.701,213.786"/>
<path fill="#231F20" d="M332.684,213.759c0,0-0.225-1.439-0.623-3.963c-0.324-2.534-0.535-6.205-0.277-10.605
	c0.288-4.397,1.155-9.48,2.37-14.843c1.203-5.357,2.761-10.998,3.94-16.638c1.184-5.622,1.912-11.354,1.585-16.496
	c-0.154-1.29-0.092-2.436-0.397-3.763c-0.127-0.645-0.245-1.287-0.364-1.921l-0.178-0.94l-0.09-0.463
	c0.028,0.204-0.067-0.183-0.099-0.243c-0.64-2.221-1.558-4.178-2.561-5.867c-2.078-3.347-4.641-5.422-6.52-6.641
	c-1.896-1.221-3.112-1.681-3.112-1.681c-5.928-3.008-13.52-3.455-19.488-0.709c-2.929,1.392-5.382,3.632-6.349,6.542
	c-1.093,2.87-0.696,6.29,0.412,9.519l2.131,6.177l-5.424-3.39c-4.666-2.922-10.094-4.691-15.557-4.712
	c-5.358,0.007-11.094,1.542-14.494,5.598c-1.852,1.873-2.787,4.41-3.22,6.999c-0.069,1.326-0.288,2.654,0.013,4.01l0.253,2.028
	l0.607,1.94c1.737,5.419,4.954,10.164,9.41,13.744c4.402,3.647,9.749,6.118,15.131,8.34c5.409,2.225,10.993,4.088,16.499,6.209
	c5.487,2.147,10.968,4.52,15.819,7.943C326.954,203.296,330.933,208.105,332.684,213.759c-1.953-5.619-6.022-10.187-10.912-13.354
	c-4.879-3.216-10.361-5.39-15.88-7.338c-5.538-1.93-11.186-3.614-16.731-5.687c-5.522-2.083-11.092-4.419-15.92-8.138
	c-4.863-3.625-8.662-8.85-10.68-14.556l-0.773-2.252l-0.38-2.333c-0.373-1.535-0.211-3.147-0.157-4.757
	c0.397-3.159,1.52-6.418,3.734-8.851c0.937-1.369,2.322-2.253,3.543-3.322c1.395-0.767,2.733-1.751,4.254-2.224l2.253-0.817
	c0.759-0.223,1.543-0.337,2.316-0.508c1.551-0.39,3.124-0.407,4.701-0.5c6.31-0.176,12.544,1.656,17.555,5.434
	c-0.956,0.693-1.917,1.382-2.637,1.991c-1.456-3.754-2.273-8.228-0.863-12.52c1.28-4.328,4.755-7.672,8.506-9.596
	c7.665-3.808,16.661-3.53,24.32-0.074c0,0,1.493,0.68,3.79,2.368c2.265,1.679,5.337,4.535,7.611,8.819
	c4.919,8.683,3.9,21.668,0.639,32.864c-1.571,5.682-3.48,11.191-5.004,16.414c-1.536,5.213-2.704,10.148-3.266,14.462
	c-0.522,4.308-0.553,7.95-0.392,10.489C332.551,212.311,332.684,213.759,332.684,213.759"/>
</svg>
