<?xml version="1.0" encoding="UTF-8" standalone="no"?>
<!-- Generator: Adobe Illustrator 12.0.0, SVG Export Plug-In . SVG Version: 6.00 Build 51448)  -->

<svg
   xmlns:dc="http://purl.org/dc/elements/1.1/"
   xmlns:cc="http://creativecommons.org/ns#"
   xmlns:rdf="http://www.w3.org/1999/02/22-rdf-syntax-ns#"
   xmlns:svg="http://www.w3.org/2000/svg"
   xmlns="http://www.w3.org/2000/svg"
   xmlns:sodipodi="http://sodipodi.sourceforge.net/DTD/sodipodi-0.dtd"
   xmlns:inkscape="http://www.inkscape.org/namespaces/inkscape"
   version="1.1"
   id="Layer_1"
   width="539.87714"
   height="257.62225"
   viewBox="0 0 539.87713 257.62225"
   overflow="visible"
   enable-background="new 0 0 693.911 693.908"
   xml:space="preserve"
   sodipodi:docname="decarte-logo-white.svg"
   style="overflow:visible"
   inkscape:version="0.92.1 r15371"><metadata
     id="metadata4649"><rdf:RDF><cc:Work
         rdf:about=""><dc:format>image/svg+xml</dc:format><dc:type
           rdf:resource="http://purl.org/dc/dcmitype/StillImage" /><dc:title></dc:title></cc:Work></rdf:RDF></metadata><defs
     id="defs4647" /><sodipodi:namedview
     pagecolor="#ffffff"
     bordercolor="#666666"
     borderopacity="1"
     objecttolerance="10"
     gridtolerance="10"
     guidetolerance="10"
     inkscape:pageopacity="0"
     inkscape:pageshadow="2"
     inkscape:window-width="1920"
     inkscape:window-height="1017"
     id="namedview4645"
     showgrid="false"
     inkscape:zoom="0.96195574"
     inkscape:cx="313.17157"
     inkscape:cy="192.40544"
     inkscape:window-x="1912"
     inkscape:window-y="-8"
     inkscape:window-maximized="1"
     inkscape:current-layer="Layer_1" /><g
     id="g4638"
     transform="translate(-99.28632,-369.52575)"
     style="fill:#ffffff"><path
       d="m 182.86,479.658 c -4.352,13.054 -6.871,22.444 -12.597,35.041 -2.519,4.809 -5.267,9.16 -10.077,11.68 -4.352,2.748 -10.306,2.061 -14.658,-0.458 -3.436,-2.062 -6.184,-4.58 -8.703,-7.787 -5.497,-6.184 -9.391,-14.428 -10.306,-22.673 0,-0.688 -0.688,-0.688 -0.916,-0.458 -0.229,0 -0.229,0 -0.458,0.229 v 0.229 c -1.604,3.435 -2.291,6.87 -3.436,10.535 -1.604,3.894 -2.52,7.328 -4.123,10.992 -4.123,7.788 -13.283,3.436 -15.803,-2.977 -2.977,-6.184 -2.748,-15.116 -2.061,-21.757 0.687,-5.269 3.206,-11.909 8.016,-14.887 3.435,-2.062 7.558,-3.665 11.909,-2.52 0.916,0.687 1.832,0.687 3.435,1.374 0.687,0 1.374,-0.229 1.374,-0.916 1.603,-14.886 0.229,-29.773 0.917,-45.117 0,-9.849 0.229,-19.01 0.916,-28.399 0.229,-7.329 0.916,-14.429 4.352,-21.071 1.833,-3.435 3.207,-6.641 6.642,-9.16 2.29,-1.832 7.557,-3.664 8.245,0.459 0.229,2.747 0.229,5.267 -0.458,8.016 0,2.061 -0.687,4.122 -0.916,6.184 -2.519,13.741 -6.871,31.376 -8.016,45.347 -0.687,6.412 -1.145,16.489 -1.832,22.674 0,0.687 -0.916,15.114 -0.916,22.215 0,9.161 1.374,19.009 4.122,27.94 2.062,6.642 5.497,12.825 10.306,17.406 2.978,2.748 7.558,3.664 10.993,1.832 4.352,-2.062 6.871,-6.413 8.932,-10.764 3.435,-6.413 5.268,-13.055 7.787,-19.697 l 4.81,-14.657 c 0.688,-0.229 1.145,-0.229 1.374,0 0.229,0.229 0.688,0.457 1.146,1.145 z m -63.898,-1.832 c -2.062,-0.916 -3.893,-0.458 -5.497,1.603 -2.748,3.665 -2.748,7.558 -3.435,11.909 -0.687,7.1 -2.061,14.429 -0.458,21.758 0.687,2.062 3.206,5.726 5.268,2.29 1.603,-3.436 2.977,-6.871 4.122,-10.307 1.604,-5.726 2.519,-11.68 4.123,-17.177 0.458,-1.146 0.687,-2.061 0.687,-3.206 0.687,-2.978 -2.061,-5.726 -4.81,-6.87 z m 15.116,-56.57 c 0.229,-0.687 0.687,-1.373 0.687,-2.061 l 6.871,-37.103 c 0.687,-3.435 -1.146,-2.748 -2.749,-0.688 l -2.061,4.811 c -0.916,3.436 -1.375,6.87 -1.375,9.849 -0.687,6.641 -1.374,13.282 -1.603,20.382 -0.228,1.604 0.23,4.124 0.23,4.81 z"
       id="path4602"
       inkscape:connector-curvature="0"
       style="fill:#ffffff" /><path
       d="m 223.166,512.867 c -5.497,2.061 -11.68,2.061 -17.406,1.145 -7.558,-1.603 -14.886,-4.81 -20.154,-10.306 -5.496,-5.497 -8.245,-16.72 -5.726,-24.048 2.52,-10.993 14.887,-21.758 21.986,-12.826 2.52,2.52 4.581,8.245 1.833,11.681 -3.207,5.496 -8.474,3.665 -13.283,6.184 l -0.688,0.688 -0.229,1.146 c 0.458,3.435 0,14.657 14.657,21.985 3.894,2.062 8.016,2.749 12.825,2.29 5.268,-0.458 10.077,-2.519 13.971,-6.412 4.351,-3.664 5.497,-5.726 9.848,-10.993 4.352,-5.497 7.329,-9.391 10.077,-14.199 0.688,0 1.145,0 1.374,0.229 1.604,0.688 -0.687,4.123 -1.374,4.81 -3.894,5.496 -8.474,11.68 -12.826,16.948 -5.266,5.723 -8.244,9.157 -14.885,11.678 z m -33.895,-32.98 c 0,0.687 0.687,0.458 1.374,0.458 3.435,-0.688 5.955,-0.688 8.474,-2.291 l 2.519,-2.29 c 0.688,-2.52 -0.916,-4.352 -2.977,-6.87 -0.916,-0.688 -1.832,-0.688 -2.978,0 -0.916,0.687 -1.374,0.687 -2.29,1.603 -2.519,2.977 -3.436,5.496 -4.122,9.39 z"
       id="path4604"
       inkscape:connector-curvature="0"
       style="fill:#ffffff" /><path
       d="m 318.209,480.803 c -2.977,4.81 -12.826,19.925 -24.506,31.146 -6.413,5.955 -14.428,12.826 -21.756,12.139 -8.017,0 -11.222,-3.436 -14.887,-7.101 -2.978,-3.435 -5.268,-7.786 -6.642,-13.054 -1.832,-7.1 -1.832,-13.513 -0.688,-20.611 1.604,-7.101 4.352,-13.514 9.161,-18.094 2.061,-2.061 6.184,-4.809 11.451,-5.038 3.436,-0.229 5.955,0.915 8.017,3.435 2.519,2.748 3.206,5.955 2.29,9.391 -0.229,0.916 -0.917,1.374 -1.604,1.374 -0.458,0 -0.916,-0.229 -1.145,-0.916 -0.229,-0.229 -0.458,-0.917 -0.458,-1.832 l -0.687,-2.978 c -0.688,-2.062 -1.603,-3.206 -2.749,-3.894 -0.916,-0.688 -2.061,-0.688 -2.748,-0.688 -1.832,0 -3.436,0.458 -5.038,1.604 -1.604,1.374 -3.207,3.664 -4.581,7.1 -1.832,4.352 -2.519,9.849 -3.207,16.032 -0.229,8.932 0.229,15.345 2.748,20.841 1.146,2.29 4.581,8.933 10.765,9.618 0.229,0 0.687,0.229 1.374,0.229 8.245,0 15.574,-7.328 21.299,-13.512 8.016,-7.559 14.428,-16.719 20.612,-26.796 0.687,-1.603 1.146,-1.374 1.832,-1.374 0.688,0 1.146,0.457 1.375,1.145 0.002,0.689 0.46,1.147 -0.228,1.834 z"
       id="path4606"
       inkscape:connector-curvature="0"
       style="fill:#ffffff" /><path
       d="m 391.954,417.821 c -1.832,6.643 -3.895,45.805 -4.582,52.446 -0.914,7.33 -7.328,76.724 8.018,73.059 0.686,-0.229 1.373,-0.687 2.289,-0.458 1.145,0.229 1.832,1.375 1.832,2.978 -0.688,1.146 -1.602,2.062 -2.748,2.748 -5.268,2.521 -11.68,-0.229 -15.344,-4.809 -3.664,-4.58 -5.039,-10.078 -5.727,-16.261 -3.664,-25.881 -0.916,-51.302 2.52,-77.182 -8.475,18.322 -18.551,51.53 -33.208,74.204 -1.604,2.52 -2.978,4.58 -5.497,6.183 -5.496,3.436 -13.055,1.146 -17.405,-4.121 -3.894,-4.81 -5.269,-11.681 -5.955,-17.864 -2.52,-23.131 0.916,-46.263 9.16,-68.021 6.184,-16.718 19.238,-46.721 41.225,-46.721 7.1,0.688 13.742,5.038 15.803,11.681 2.52,-3.435 3.436,-6.871 5.268,-10.306 1.604,-3.436 4.123,-6.643 8.473,-6.871 1.604,-0.229 2.52,0 3.207,0.916 0.916,1.146 0.916,2.52 0.229,4.122 -0.688,1.833 -0.688,3.206 -1.373,5.038 -2.064,6.414 -4.353,12.597 -6.185,19.239 z m -9.62,2.519 c 0,-5.268 -0.688,-10.307 -2.748,-14.657 -2.748,-4.58 -7.102,-8.245 -12.367,-8.245 -8.934,-0.688 -14.887,7.558 -19.239,14.887 -4.81,7.786 -8.702,16.26 -11.68,25.65 -6.184,17.635 -8.703,36.187 -10.307,54.508 -0.688,8.475 -1.145,16.719 0,24.964 0.229,2.977 0.917,6.184 2.748,8.702 2.062,2.52 5.496,3.895 8.246,2.749 1.603,-0.917 2.748,-2.062 3.893,-3.665 12.825,-18.321 19.696,-40.308 28.399,-61.149 2.748,-6.642 5.496,-12.825 8.016,-19.925 2.748,-7.558 4.811,-15.575 5.039,-23.819 z m 10.307,-16.718 c 2.061,-3.436 2.748,-6.871 3.664,-10.535 0,0 -0.23,-0.229 -0.459,-0.916 -0.229,-0.229 -0.457,-0.229 -0.457,0.229 -0.916,0.688 -1.375,1.146 -1.604,1.833 -1.144,3.434 -1.831,5.953 -1.144,9.389 z"
       id="path4608"
       inkscape:connector-curvature="0"
       style="fill:#ffffff" /><path
       d="m 578.147,587.528 c -3.207,5.038 -8.018,9.161 -14.199,11.909 -5.727,2.52 -12.369,3.894 -19.01,3.894 -5.727,0 -11.451,-0.916 -16.49,-2.748 -11.451,-3.894 -21.07,-11.451 -30.461,-18.552 -2.061,-1.603 -4.121,-3.206 -6.184,-4.809 -1.602,-0.917 -2.977,-1.833 -5.268,-1.146 -1.83,0.458 -3.893,1.603 -5.725,2.29 -21.299,9.849 -46.262,21.07 -71.914,30.002 -13.971,4.81 -29.771,10.078 -45.805,13.741 -9.619,2.291 -21.299,5.039 -32.75,5.039 -4.58,0 -8.932,-0.458 -12.825,-1.374 -6.871,-1.832 -12.368,-5.497 -15.345,-10.535 -2.977,-4.352 -3.665,-10.077 -2.061,-15.573 1.603,-5.497 5.267,-10.078 10.076,-12.368 1.604,-0.916 3.436,-1.373 5.039,-1.373 1.146,0 3.894,0.457 3.206,2.061 0,0.688 -0.686,1.146 -1.603,1.146 -2.519,0 -5.038,0.229 -7.329,1.832 -2.29,1.603 -3.893,3.894 -5.268,7.328 -1.832,4.811 -1.832,9.39 -0.229,13.284 3.207,7.328 12.138,10.076 17.177,10.764 3.665,0.688 7.558,1.146 11.452,1.146 6.412,0 13.513,-0.917 22.215,-2.52 19.238,-3.894 38.246,-10.535 54.508,-16.261 20.383,-7.328 40.309,-16.031 59.775,-24.505 3.664,-1.604 7.1,-3.207 10.764,-4.811 4.352,-1.832 5.725,-2.748 6.412,-4.351 0.916,-2.748 -2.061,-5.955 -2.977,-8.245 -6.643,-15.115 -11.682,-30.919 -16.719,-46.492 -3.664,-12.138 -8.475,-26.338 -19.469,-33.896 -4.121,-2.748 -9.158,-4.123 -13.969,-4.123 -1.145,0 -2.291,0.229 -2.979,0.917 -0.914,0.688 -1.145,2.29 -1.145,3.436 0.23,18.093 0,36.414 -0.916,54.507 -0.457,4.581 -0.688,9.391 -2.52,13.742 -0.229,0.457 -0.457,1.145 -0.916,1.374 -1.832,1.146 -3.436,-1.145 -3.893,-3.207 -7.787,-26.566 -9.391,-54.965 -4.58,-82.22 2.289,-12.366 5.725,-24.733 5.266,-37.33 -0.229,-5.038 -1.145,-10.076 0,-14.887 0.459,-1.145 0.918,-2.29 1.834,-2.52 2.061,-1.146 3.893,2.062 4.352,4.352 0.457,2.749 0.916,5.496 1.604,8.017 3.434,-5.955 8.473,-11.451 14.656,-14.43 6.412,-3.205 13.971,-4.122 20.611,-1.603 9.162,3.436 15.346,12.825 16.262,22.674 0.916,9.848 -2.977,19.696 -9.391,27.024 -6.184,7.558 -14.887,12.825 -23.818,16.719 2.291,-0.916 7.787,5.497 9.162,7.1 11.68,12.367 16.26,30.231 21.756,45.805 4.123,11.681 7.1,24.047 12.826,35.041 1.604,3.435 3.893,4.81 7.1,4.81 0.688,0 1.604,0 2.748,-0.229 5.727,-1.146 9.619,-3.894 14.428,-6.642 12.139,-6.87 27.256,-14.199 41.455,-14.199 6.184,0 13.512,1.604 18.779,6.412 4.352,4.122 6.871,10.306 7.1,16.948 0.232,5.954 -1.369,12.367 -4.805,17.635 z M 422.411,493.857 c 0,-9.849 -0.23,-19.695 -0.459,-29.544 0,-0.688 0,-6.184 -0.916,-6.184 0,-0.459 -0.457,-0.229 -0.688,0.229 -0.916,3.207 -1.832,6.184 -2.061,9.391 -0.459,10.077 -2.061,19.695 -2.061,29.314 0,13.971 1.602,27.713 5.037,41.225 0.229,0.688 0.459,1.146 0.688,1.146 0.459,-1.604 0.459,-3.436 0.459,-5.269 v -40.308 z m 44.429,-37.56 c 7.787,-10.536 9.619,-25.65 2.979,-36.644 -1.834,-2.979 -4.354,-5.726 -7.789,-7.559 -4.35,-2.062 -10.076,-2.062 -14.887,-0.229 -17.861,6.642 -19.236,24.964 -18.549,41.683 0.688,5.954 0.688,12.138 1.373,17.863 0,1.374 0,2.749 1.146,3.436 0.457,0.458 2.518,0.458 2.748,0.458 13.056,-2.289 25.421,-8.473 32.979,-19.008 z m 113.139,110.848 c -0.688,-5.497 -3.436,-10.078 -7.787,-13.283 -4.123,-2.748 -9.391,-4.123 -15.574,-4.123 -4.58,0 -9.848,0.916 -15.346,2.52 -10.992,3.206 -21.068,8.932 -30.916,14.657 -1.832,1.146 -3.895,2.29 -5.955,3.436 -1.832,1.146 -2.748,2.061 -2.979,3.436 -0.229,1.145 0.23,2.519 1.604,4.351 3.895,5.269 9.16,9.391 13.514,12.597 8.244,5.955 17.404,8.933 27.482,8.933 3.664,0 7.787,-0.229 11.68,-1.146 7.1,-1.604 13.055,-4.81 17.406,-9.619 5.039,-5.956 7.787,-14.43 6.871,-21.759 z"
       id="path4610"
       inkscape:connector-curvature="0"
       style="fill:#ffffff" /><path
       d="m 568.985,481.032 c 0,0.916 -3.895,10.535 -5.039,12.138 -7.33,14.429 -12.596,25.193 -21.529,35.957 -5.496,6.643 -11.908,12.368 -17.176,16.032 -7.1,5.268 -14.428,4.58 -21.07,-0.916 -10.535,-9.391 -13.283,-25.193 -15.803,-38.019 -2.52,-12.826 -2.52,-25.65 -0.916,-38.476 0.916,-9.849 2.291,-20.842 2.979,-33.667 0,-1.374 -0.918,-2.29 -2.52,-2.977 -4.123,-1.146 -27.484,-2.291 -33.438,-2.291 -2.75,-0.229 -38.248,-1.832 -38.248,-1.603 h -8.703 c -4.809,0 -10.764,0.228 -14.656,0 -1.604,-0.229 -3.666,-1.603 -1.604,-3.206 0.686,-0.459 1.373,-0.688 2.061,-0.688 4.352,-0.688 8.475,-0.458 12.826,-0.458 16.719,0 82.676,3.206 83.363,3.206 1.146,0 2.063,-0.687 2.748,-1.832 l 2.063,-5.726 c 0.688,-2.52 1.145,-5.268 2.061,-8.017 1.604,-4.809 4.58,-9.848 9.85,-10.764 4.35,-1.146 7.785,0.916 9.389,5.268 1.832,4.809 2.977,10.077 1.375,14.888 0,1.603 -0.459,2.747 -0.459,4.351 0,0.917 0.459,1.604 1.375,1.832 0.686,0.688 1.832,0.688 2.52,0.688 4.809,0 29.773,2.748 33.436,3.436 1.605,0.687 2.979,1.374 2.979,3.205 0.229,0.916 0.229,2.979 -1.373,2.291 -8.703,-2.52 -34.127,-3.894 -35.957,-3.894 -2.063,0.229 -3.895,0.688 -4.811,2.519 -1.145,1.833 -9.391,15.346 -12.367,20.843 -2.748,4.809 -3.207,10.076 -3.895,15.573 -0.916,11.68 -0.457,25.421 1.146,37.102 1.145,9.16 6.643,38.018 21.986,34.354 9.16,-1.832 17.404,-14.887 21.758,-20.383 3.664,-5.269 12.367,-18.78 23.131,-42.599 1.83,-1.602 3.205,0.229 2.518,1.833 z m -67.106,-32.75 c 0,0.229 0.23,0.458 0.459,0.458 0,-0.688 4.121,-8.933 5.727,-12.367 0,-1.146 0,-1.604 0,-1.604 0,-1.604 -1.146,-2.52 -2.75,-1.832 -0.686,0.229 -1.145,0.687 -1.832,1.603 -0.457,1.145 -1.604,13.054 -1.604,13.742 z m 3.666,-23.59 c 0.457,1.146 1.602,1.604 3.205,1.374 1.145,-0.457 2.063,-1.374 2.52,-2.52 1.604,-2.519 1.604,-5.267 1.604,-8.244 0,-2.52 0,-4.581 -0.916,-7.1 -0.688,-0.916 -1.375,-1.146 -2.291,-0.916 -0.686,0.688 -1.373,1.603 -2.061,2.977 -0.688,2.52 -0.916,4.81 -1.604,6.871 -0.229,1.604 -0.688,5.038 -0.688,5.726 -0.228,0.228 10e-4,0.916 0.231,1.832 z"
       id="path4612"
       inkscape:connector-curvature="0"
       style="fill:#ffffff" /><path
       d="m 609.52,512.867 c -5.498,2.061 -11.682,2.061 -17.406,1.145 -7.559,-1.603 -14.887,-4.81 -20.154,-10.306 -5.496,-5.497 -8.244,-16.72 -5.725,-24.048 2.518,-10.993 14.885,-21.758 21.986,-12.826 2.52,2.52 4.58,8.245 1.832,11.681 -3.207,5.496 -8.475,3.665 -13.285,6.184 l -0.686,0.688 -0.229,1.146 c 0.457,3.435 0,14.657 14.656,21.985 3.893,2.062 8.016,2.749 12.826,2.29 5.268,-0.458 10.076,-2.519 13.971,-6.412 4.35,-3.664 5.496,-5.726 9.848,-10.993 4.352,-5.497 7.328,-9.391 10.076,-14.199 0.688,0 1.145,0 1.375,0.229 1.604,0.688 -0.688,4.123 -1.375,4.81 -3.893,5.496 -8.473,11.68 -12.824,16.948 -5.267,5.723 -8.245,9.157 -14.886,11.678 z m -33.896,-32.98 c 0,0.687 0.688,0.458 1.375,0.458 3.436,-0.688 5.953,-0.688 8.475,-2.291 l 2.518,-2.29 c 0.688,-2.52 -0.916,-4.352 -2.977,-6.87 -0.916,-0.688 -1.832,-0.688 -2.977,0 -0.918,0.687 -1.375,0.687 -2.291,1.603 -2.52,2.977 -3.436,5.496 -4.123,9.39 z"
       id="path4614"
       inkscape:connector-curvature="0"
       style="fill:#ffffff" /><path
       d="m 107.789,552.514 v -2.199 h 11.985 l -9.505,20.479 h 9.027 v 2.231 h -12.527 l 9.572,-20.512 h -8.552 z"
       id="path4616"
       inkscape:connector-curvature="0"
       style="fill:#ffffff" /><path
       d="m 139.442,550.315 10.598,22.711 h -2.46 l -3.545,-7.459 h -9.821 l -3.523,7.459 h -2.532 l 10.726,-22.711 z m -0.292,4.798 -3.899,8.255 h 7.783 z"
       id="path4618"
       inkscape:connector-curvature="0"
       style="fill:#ffffff" /><path
       d="m 159.865,550.315 h 4.528 c 2.596,0 4.347,0.113 5.253,0.339 1.298,0.32 2.359,0.977 3.183,1.971 0.824,0.994 1.236,2.243 1.236,3.747 0,1.515 -0.402,2.764 -1.206,3.747 -0.805,0.983 -1.912,1.646 -3.325,1.985 -1.031,0.247 -2.958,0.371 -5.783,0.371 h -1.624 v 10.551 h -2.263 v -22.711 z m 2.263,2.23 v 7.698 l 3.853,0.047 c 1.558,0 2.698,-0.142 3.42,-0.424 0.722,-0.281 1.29,-0.738 1.702,-1.37 0.413,-0.631 0.619,-1.337 0.619,-2.117 0,-0.76 -0.207,-1.455 -0.619,-2.085 -0.413,-0.632 -0.957,-1.081 -1.633,-1.349 -0.676,-0.267 -1.782,-0.4 -3.319,-0.4 z"
       id="path4620"
       inkscape:connector-curvature="0"
       style="fill:#ffffff" /><path
       d="m 185.045,550.315 h 4.528 c 2.523,0 4.233,0.104 5.13,0.31 1.35,0.309 2.446,0.972 3.291,1.988 0.845,1.016 1.268,2.266 1.268,3.751 0,1.238 -0.292,2.326 -0.874,3.266 -0.583,0.938 -1.416,1.647 -2.499,2.126 -1.083,0.48 -2.578,0.726 -4.485,0.735 l 8.177,10.535 h -2.821 l -8.176,-10.535 h -1.275 v 10.535 h -2.263 v -22.711 z m 2.264,2.23 v 7.714 l 3.921,0.031 c 1.519,0 2.643,-0.144 3.372,-0.432 0.729,-0.288 1.297,-0.748 1.705,-1.381 0.408,-0.632 0.612,-1.339 0.612,-2.121 0,-0.761 -0.207,-1.453 -0.62,-2.075 -0.414,-0.622 -0.957,-1.067 -1.628,-1.335 -0.671,-0.268 -1.788,-0.401 -3.348,-0.401 z"
       id="path4622"
       inkscape:connector-curvature="0"
       style="fill:#ffffff" /><path
       d="m 221.259,549.741 c 3.438,0 6.316,1.148 8.633,3.443 2.317,2.296 3.474,5.122 3.474,8.478 0,3.326 -1.155,6.147 -3.466,8.463 -2.312,2.316 -5.13,3.475 -8.456,3.475 -3.367,0 -6.208,-1.152 -8.525,-3.459 -2.317,-2.306 -3.475,-5.097 -3.475,-8.369 0,-2.183 0.527,-4.206 1.583,-6.069 1.056,-1.864 2.494,-3.322 4.317,-4.378 1.823,-1.056 3.794,-1.584 5.915,-1.584 z m 0.1,2.216 c -1.68,0 -3.273,0.437 -4.778,1.313 -1.505,0.876 -2.68,2.054 -3.525,3.536 -0.845,1.483 -1.268,3.135 -1.268,4.957 0,2.698 0.935,4.976 2.806,6.834 1.872,1.858 4.126,2.788 6.766,2.788 1.763,0 3.394,-0.428 4.894,-1.282 1.5,-0.854 2.67,-2.023 3.51,-3.505 0.84,-1.483 1.26,-3.13 1.26,-4.942 0,-1.802 -0.419,-3.432 -1.26,-4.889 -0.84,-1.456 -2.023,-2.621 -3.549,-3.497 -1.526,-0.877 -3.144,-1.313 -4.856,-1.313 z"
       id="path4624"
       inkscape:connector-curvature="0"
       style="fill:#ffffff" /><path
       d="m 241.897,568.797 1.93,-1.159 c 1.358,2.498 2.928,3.746 4.708,3.746 0.762,0 1.478,-0.178 2.146,-0.533 0.669,-0.354 1.179,-0.831 1.529,-1.429 0.35,-0.597 0.525,-1.229 0.525,-1.898 0,-0.762 -0.257,-1.508 -0.772,-2.239 -0.71,-1.008 -2.007,-2.223 -3.891,-3.644 -1.895,-1.431 -3.073,-2.465 -3.536,-3.104 -0.803,-1.07 -1.205,-2.228 -1.205,-3.473 0,-0.987 0.237,-1.888 0.71,-2.7 0.474,-0.813 1.141,-1.453 2,-1.922 0.86,-0.468 1.794,-0.702 2.803,-0.702 1.071,0 2.072,0.264 3.004,0.793 0.932,0.529 1.917,1.501 2.958,2.918 l -1.853,1.405 c -0.854,-1.13 -1.584,-1.874 -2.188,-2.234 -0.603,-0.358 -1.259,-0.539 -1.97,-0.539 -0.917,0 -1.667,0.278 -2.249,0.834 -0.582,0.556 -0.873,1.24 -0.873,2.054 0,0.494 0.103,0.973 0.309,1.436 0.206,0.463 0.582,0.968 1.127,1.513 0.299,0.289 1.277,1.045 2.935,2.271 1.967,1.452 3.316,2.744 4.047,3.878 0.731,1.133 1.097,2.271 1.097,3.413 0,1.648 -0.626,3.08 -1.876,4.296 -1.25,1.215 -2.771,1.822 -4.562,1.822 -1.378,0 -2.63,-0.367 -3.751,-1.104 -1.121,-0.737 -2.156,-1.97 -3.102,-3.699 z"
       id="path4626"
       inkscape:connector-curvature="0"
       style="fill:#ffffff" /><path
       d="m 265.436,552.514 v -2.199 h 11.985 l -9.504,20.479 h 9.026 v 2.231 h -12.527 l 9.573,-20.512 h -8.553 z"
       id="path4628"
       inkscape:connector-curvature="0"
       style="fill:#ffffff" /><path
       d="m 287.829,550.315 h 13.037 v 2.23 h -10.774 v 7.108 h 10.678 v 2.231 h -10.678 v 8.909 h 10.678 v 2.231 h -12.941 z"
       id="path4630"
       inkscape:connector-curvature="0"
       style="fill:#ffffff" /><path
       d="m 311.104,573.026 v -22.711 h 0.493 l 15.125,17.386 v -17.386 h 2.231 v 22.711 h -0.508 l -14.999,-17.192 v 17.192 z"
       id="path4632"
       inkscape:connector-curvature="0"
       style="fill:#ffffff" /><path
       d="m 340.485,550.315 h 2.263 v 22.711 h -2.263 z"
       id="path4634"
       inkscape:connector-curvature="0"
       style="fill:#ffffff" /><path
       d="m 363.551,550.315 10.6,22.711 h -2.461 l -3.547,-7.459 h -9.82 l -3.523,7.459 h -2.531 l 10.727,-22.711 z m -0.291,4.798 -3.898,8.255 h 7.781 z"
       id="path4636"
       inkscape:connector-curvature="0"
       style="fill:#ffffff" /></g></svg>